<?xml version="1.0" encoding="UTF-8"?>
<svg id="Layer_1" data-name="Layer 1" xmlns="http://www.w3.org/2000/svg" viewBox="0 0 835.53 501.61">
  <defs>
    <style>
      .cls-1 {
        fill: #f7f3f2;
      }
    </style>
  </defs>
  <path class="cls-1" d="m835.53,482.46h-15.97c-7.75-120.42-84.8-214.17-188.04-224.76,90.26,23.83,159.06,114.42,166.12,224.76h-17.44c-6.89-101.31-69.03-184.47-150.7-207.28,77.07,44.35,120.66,114.87,127.37,207.28h-18.92c-6.46-83.14-50.73-153.75-112.58-188.12,15.22,14.7,83.8,74.65,87.27,188.12h-20.37c-4.23-65.91-30.46-124.1-69.41-162.76,23.35,49.56,38.76,104.99,40.66,162.76h-21.78c-1.72-49.2-14.33-95.79-31.73-137.65v137.65h-27.2V0h27.2v137.65c17.4-41.86,30.01-88.45,31.73-137.65h21.78c-1.9,57.76-17.31,113.19-40.66,162.76,38.94-38.66,65.18-96.84,69.41-162.76h20.37c-3.47,113.47-72.05,173.42-87.27,188.12,61.85-34.37,106.13-104.98,112.58-188.12h18.92c-6.71,92.41-50.3,162.93-127.37,207.28,81.67-22.81,143.8-105.98,150.7-207.28h17.44c-7.07,110.35-75.86,200.93-166.12,224.76,103.24-10.59,180.28-104.34,188.04-224.76h15.97c-5.68,130.64-94.9,233.58-209.51,241.23,114.62,7.65,203.84,110.6,209.51,241.23Zm-489.8-109.08l20.34-23.01h-19.55c-4.94,6.12-11.56,14.12-17.58,21.82,0-5.83.1-11.46.1-16.49v-25.48h-16.29v72.09h16.29v-12.74l5.33-5.92,12.94,18.66h20.24l-21.83-28.93Zm71.48,7.01h-38.32c.6,6.91,5.43,11.26,12.44,11.26s10.47-3.56,12.64-6.72l13.13,4.64c-4.25,7.8-12.94,14.02-26.07,14.02-16.68,0-27.65-10.47-27.65-27.25s10.87-27.45,27.55-27.45c17.58,0,26.27,12.15,26.27,30.02v1.48Zm-15.8-10.07c-.2-6.12-4.05-10.37-10.76-10.37s-10.86,4.25-11.66,10.37h22.42Zm22.47,31.99h16.39v-72.09h-16.39v72.09Zm23.91,0h16.39v-72.09h-16.39v72.09Zm53.47-31.3l-5.83-1.38c-5.63-1.28-8-2.37-8-5.23,0-2.37,2.17-4.34,6.72-4.34,4.84,0,7.9,2.07,8.98,6.32l14.12-2.57c-2.17-9.78-10.27-14.71-23.01-14.71-13.72,0-22.81,5.93-22.81,16.39,0,9.68,6.82,13.43,17.58,15.8l6.02,1.48c5.23,1.19,7.31,2.27,7.31,4.94,0,2.86-2.67,4.93-7.8,4.93s-8.69-2.17-10.07-7.11l-14.72,2.77c2.37,10.37,11.26,15.31,24.59,15.31,14.62,0,24.29-5.23,24.29-16.59,0-9.19-6.51-13.43-17.37-16Zm-379.9-73.96c0,10.62,1.58,14.6,5.66,17.08h18.87v-2.58c-5.17-1.88-8.24-4.96-8.24-18.47v-18.97h10.33v-12.22h-10.33v-14.3h-16.28v14.3h-8.44v12.22h8.44v22.94Zm59.39-23.34c6.45,0,8.94,3.97,8.94,14.8v25.62h16.28v-31.58c0-14.8-6.45-22.05-18.87-22.05-7.85,0-13.01,2.98-15.89,6.55h-.1c.1-1.49.1-3.28.1-7.15v-18.27h-16.38v72.5h16.38v-26.71c0-9.14,3.08-13.7,9.54-13.7Zm29.85,14.3c0-16.18,10.93-27.61,27.71-27.61,17.68,0,26.41,12.22,26.41,30.19v1.49h-38.53c.6,6.95,5.46,11.32,12.51,11.32s10.53-3.57,12.71-6.75l13.21,4.67c-4.27,7.84-13,14.1-26.21,14.1-16.78,0-27.81-10.53-27.81-27.41Zm15.69-6.06h22.54c-.2-6.16-4.07-10.43-10.82-10.43s-10.92,4.27-11.72,10.43Zm71.74,32.17h-15.89c.1-2.29.1-4.87.1-7.45v-65.05h16.28v15.99c0,3.08,0,6.35-.1,9.93,2.89-3.48,7.94-7.15,15.69-7.15,14.1,0,23.74,11.22,23.74,27.61s-9.73,27.31-24.13,27.31c-7.55,0-12.52-2.98-15.6-7.25h-.2c0,1.39.1,2.78.1,4.37v1.69Zm.1-26.12c0,8.64,4.47,14.6,11.91,14.6s11.63-5.96,11.63-14.5-4.37-14.6-11.73-14.6-11.81,5.86-11.81,14.5Zm44.03,0c0-16.39,11.31-27.61,28.1-27.61s27.91,11.32,27.91,27.61-11.22,27.31-28.01,27.31-28-11.02-28-27.31Zm16.09,0c0,9.04,4.27,14.6,11.91,14.6s11.92-5.56,11.92-14.5-4.17-14.7-11.82-14.7-12.01,5.96-12.01,14.6Zm43.93,0c0-16.39,11.32-27.61,28.11-27.61s27.9,11.32,27.9,27.61-11.22,27.31-28,27.31-28.01-11.02-28.01-27.31Zm16.09,0c0,9.04,4.27,14.6,11.92,14.6s11.91-5.56,11.91-14.5-4.17-14.7-11.82-14.7-12.02,5.96-12.02,14.6Zm99.53-26.12h-19.67c-4.96,6.16-11.62,14.2-17.68,21.95,0-5.86.1-11.52.1-16.58v-25.62h-16.38v72.5h16.38v-12.81l5.37-5.96,13,18.77h20.36l-21.94-29.1,20.46-23.14ZM53.71,470.3c-4.25,7.8-12.94,14.02-26.07,14.02-16.68,0-27.64-10.47-27.64-27.25s10.86-27.45,27.55-27.45c17.58,0,26.27,12.15,26.27,30.02v1.48H15.5c.59,6.91,5.43,11.26,12.44,11.26s10.47-3.56,12.64-6.72l13.13,4.64Zm-38.11-19.25h22.41c-.2-6.12-4.05-10.37-10.76-10.37s-10.86,4.25-11.65,10.37Zm91.92-19.95h-18.07l-8.59,14.41h-.2l-8.79-14.41h-18.77l17.87,25.28-18.76,26.66h18.17l9.97-15.6h.2l9.97,15.6h18.66l-18.96-26.76,17.28-25.18Zm60.11,25.87c0,16.19-9.58,27.25-23.99,27.25-7.51,0-11.95-2.67-15.01-6.52h-.2c0,1.87.1,3.85.1,5.82v18.07h-16.19v-61.12c0-3.26,0-6.71-.1-9.38h16v1.88c0,1.28,0,2.07-.1,3.85,3.06-3.65,8.19-7.21,15.8-7.21,13.92,0,23.7,11.16,23.7,27.35Zm-16.09.2c0-8.69-4.35-14.52-11.66-14.52s-11.85,5.83-11.85,14.42,4.45,14.52,11.85,14.52,11.66-5.93,11.66-14.42Zm74.47,2.47v1.48h-38.32c.59,6.91,5.43,11.26,12.44,11.26s10.47-3.56,12.63-6.72l13.13,4.64c-4.24,7.8-12.93,14.02-26.06,14.02-16.69,0-27.65-10.47-27.65-27.25s10.86-27.45,27.55-27.45c17.58,0,26.27,12.15,26.27,30.02Zm-15.81-8.59c-.2-6.12-4.05-10.37-10.76-10.37s-10.86,4.25-11.65,10.37h22.41Zm36.91-13.03h-.2c.1-1.58.1-3.16.1-4.84v-2.07h-15.31c.11,3.16.11,6.02.11,9.38v42.56h16.09v-19.16c0-14.32,2.76-19.55,12.73-19.55,1.38,0,2.57.1,3.76.4l.1-14.72c-.59-.2-1.78-.3-2.96-.3-7.11,0-12.25,3.26-14.42,8.3Zm22.44,45.03h16.4v-51.94h-16.4v51.94Zm0-58.36h16.4v-13.72h-16.4v13.72Zm75.38,34.96v1.48h-38.31c.59,6.91,5.43,11.26,12.44,11.26s10.46-3.56,12.63-6.72l13.13,4.64c-4.24,7.8-12.94,14.02-26.07,14.02-16.68,0-27.64-10.47-27.64-27.25s10.86-27.45,27.55-27.45c17.58,0,26.27,12.15,26.27,30.02Zm-15.8-8.59c-.2-6.12-4.04-10.37-10.76-10.37s-10.86,4.25-11.65,10.37h22.41Zm53.54-21.33c-7.8,0-13.62,3.06-16.49,7.31h-.1c.1-1.48.1-2.57.1-3.95v-1.97h-15.7c.1,2.86.1,6.61.1,9.28v42.66h16.29v-26.56c0-9.08,3.06-13.63,9.48-13.63s8.88,3.95,8.88,14.71v25.48h16.19v-31.4c0-14.71-6.42-21.92-18.76-21.92Zm51.49,41.87c-6.91,0-11.45-4.94-11.45-14.42,0-8.99,4.05-14.61,11.25-14.61,5.23,0,8.69,3.16,10.07,7.51l14.62-3.16c-2.67-10.27-11.95-17.28-24.69-17.28-16.29,0-27.35,11.16-27.35,27.55s10.37,27.06,27.15,27.06c12.84,0,22.02-6.82,24.98-16.79l-14.62-3.26c-1.38,4.44-4.74,7.41-9.97,7.41Zm81.89-11.95v1.48h-38.31c.59,6.91,5.43,11.26,12.44,11.26s10.47-3.56,12.63-6.72l13.13,4.64c-4.24,7.8-12.94,14.02-26.07,14.02-16.68,0-27.64-10.47-27.64-27.25s10.86-27.45,27.55-27.45c17.58,0,26.27,12.15,26.27,30.02Zm-15.8-8.59c-.2-6.12-4.04-10.37-10.76-10.37s-10.86,4.25-11.65,10.37h22.41Zm-239.43-74.75c0,16.19-11.16,27.15-27.85,27.15s-27.85-10.96-27.85-27.15,11.26-27.45,27.95-27.45,27.75,11.25,27.75,27.45Zm-16,.1c0-8.69-4.14-14.61-11.75-14.61s-11.95,5.92-11.95,14.52,4.25,14.52,11.85,14.52,11.85-5.53,11.85-14.42Zm17.81-13.92h6.92v39.8h16.19v-39.8h9.47v-12.15h-9.67v-3.36c0-4.05,1.98-5.43,6.02-5.43,1.29,0,2.67.1,3.65.49l.4-11.95c-1.48-.29-4.54-.49-7.11-.49-12.74,0-18.96,3.85-18.96,17.18v3.55h-6.92v12.15Z"/>
</svg>